<svg width="224" height="38" viewBox="0 0 224 38" fill="none" xmlns="http://www.w3.org/2000/svg">
<path d="M12.3516 25.7812C12.3516 26.0625 12.3867 26.4141 12.457 26.8359C12.5273 27.2461 12.6152 27.6621 12.7207 28.084C12.8262 28.4941 12.9492 28.875 13.0898 29.2266C13.2305 29.5664 13.3711 29.8008 13.5117 29.9297L12.2461 30.668C12.1055 30.5273 11.9531 30.252 11.7891 29.8418C11.625 29.4316 11.4668 28.9688 11.3145 28.4531C11.1738 27.9375 11.0508 27.4102 10.9453 26.8711C10.8516 26.332 10.8047 25.8691 10.8047 25.4824C10.8047 25.3887 10.8047 25.3066 10.8047 25.2363C10.8164 25.1543 10.8281 25.0723 10.8398 24.9902C10.8516 24.9551 10.8633 24.9141 10.875 24.8672C10.8867 24.8086 10.9043 24.7441 10.9277 24.6738C10.541 24.5449 10.1543 24.4336 9.76758 24.3398C9.38086 24.2461 9.03516 24.1992 8.73047 24.1992C8.63672 24.1992 8.55469 24.2051 8.48438 24.2168C8.41406 24.2168 8.34961 24.2227 8.29102 24.2344C8.18555 24.2578 8.0625 24.2988 7.92188 24.3574C7.78125 24.416 7.64062 24.4746 7.5 24.5332C7.35938 25.0488 7.20703 25.5293 7.04297 25.9746C6.89062 26.4082 6.73242 26.7773 6.56836 27.082C6.33398 27.4688 6.08203 27.8555 5.8125 28.2422C5.57812 28.582 5.30273 28.9453 4.98633 29.332C4.68164 29.707 4.3418 30.0469 3.9668 30.3516L3.17578 29.5957C3.29297 29.4434 3.44531 29.2324 3.63281 28.9629C3.82031 28.6816 4.01953 28.3594 4.23047 27.9961C4.45312 27.6328 4.67578 27.2402 4.89844 26.8184C5.13281 26.3848 5.35547 25.9395 5.56641 25.4824L5.53125 25.5176C5.50781 25.541 5.47852 25.5527 5.44336 25.5527L4.58203 24.3398C4.74609 24.1875 4.99805 24.0293 5.33789 23.8652C5.67773 23.6895 6.04102 23.5254 6.42773 23.373C6.43945 23.3379 6.45117 23.3027 6.46289 23.2676C6.47461 23.2324 6.48633 23.1973 6.49805 23.1621C6.70898 22.4238 6.87305 21.7266 6.99023 21.0703C7.11914 20.4141 7.18359 19.8457 7.18359 19.3652C7.18359 19.0137 7.14258 18.7266 7.06055 18.5039C6.99023 18.2812 6.89062 18.1406 6.76172 18.082H6.72656C6.71484 18.082 6.69727 18.082 6.67383 18.082C6.66211 18.0703 6.64453 18.0645 6.62109 18.0645C6.5625 18.0645 6.48633 18.082 6.39258 18.1172C6.29883 18.1406 6.18164 18.1992 6.04102 18.293C5.91211 18.375 5.76562 18.498 5.60156 18.6621C5.44922 18.8262 5.2793 19.0488 5.0918 19.3301L4.38867 18.416C4.54102 18.1816 4.7168 17.9648 4.91602 17.7656C5.12695 17.5547 5.34375 17.373 5.56641 17.2207C5.80078 17.0684 6.0293 16.9453 6.25195 16.8516C6.48633 16.7461 6.70312 16.6816 6.90234 16.6582C6.92578 16.6465 6.96094 16.6406 7.00781 16.6406C7.19531 16.6406 7.37695 16.7051 7.55273 16.834C7.74023 16.9512 7.9043 17.1094 8.04492 17.3086C8.18555 17.4961 8.29688 17.7129 8.37891 17.959C8.46094 18.1934 8.50781 18.4336 8.51953 18.6797V18.7676C8.51953 18.9316 8.50195 19.1602 8.4668 19.4531C8.44336 19.7344 8.40234 20.0625 8.34375 20.4375C8.29688 20.8008 8.23242 21.1992 8.15039 21.6328C8.06836 22.0664 7.98047 22.5117 7.88672 22.9688C7.96875 22.9453 8.04492 22.9277 8.11523 22.916C8.19727 22.9043 8.26758 22.8984 8.32617 22.8984C8.36133 22.875 8.41406 22.8633 8.48438 22.8633C8.64844 22.8633 8.8418 22.8867 9.06445 22.9336C9.29883 22.9688 9.53906 23.0215 9.78516 23.0918C10.0312 23.1504 10.2773 23.2207 10.5234 23.3027C10.7812 23.373 11.0215 23.4434 11.2441 23.5137C11.3613 23.127 11.4961 22.6992 11.6484 22.2305C11.8008 21.75 11.959 21.2695 12.123 20.7891C12.2988 20.2969 12.4688 19.8223 12.6328 19.3652C12.8086 18.8965 12.9785 18.4746 13.1426 18.0996C13.3066 17.7129 13.4531 17.3906 13.582 17.1328C13.7227 16.875 13.8398 16.7051 13.9336 16.623L15.2168 17.3086C15.123 17.4609 14.9883 17.748 14.8125 18.1699C14.6367 18.5918 14.4434 19.084 14.2324 19.6465C14.0215 20.209 13.8047 20.8125 13.582 21.457C13.3711 22.0898 13.1719 22.6934 12.9844 23.2676C12.8086 23.8301 12.6621 24.334 12.5449 24.7793C12.4277 25.2129 12.3633 25.5117 12.3516 25.6758V25.7812ZM19.3301 22.7402C19.2363 22.7402 19.1074 22.8105 18.9434 22.9512C18.791 23.0918 18.6211 23.2793 18.4336 23.5137C18.2578 23.7363 18.0703 24 17.8711 24.3047C17.6719 24.6094 17.4961 24.9258 17.3438 25.2539C17.2852 25.3711 17.2324 25.4883 17.1855 25.6055C17.1387 25.7227 17.0918 25.8457 17.0449 25.9746C17.3496 25.916 17.666 25.8457 17.9941 25.7637C18.334 25.6699 18.5859 25.5703 18.75 25.4648C18.832 25.4062 18.9199 25.2891 19.0137 25.1133C19.1191 24.9375 19.2129 24.7441 19.2949 24.5332C19.3887 24.3105 19.4648 24.082 19.5234 23.8477C19.582 23.6016 19.6113 23.3906 19.6113 23.2148C19.6113 23.0859 19.5879 22.9746 19.541 22.8809C19.4941 22.7871 19.4238 22.7402 19.3301 22.7402ZM23.2324 27.75C23.0215 27.9023 22.7754 28.0781 22.4941 28.2773C22.2129 28.4648 21.9141 28.6641 21.5977 28.875C21.293 29.0742 20.9824 29.2734 20.666 29.4727C20.3613 29.6719 20.0742 29.8477 19.8047 30C19.5469 30.1641 19.3242 30.293 19.1367 30.3867C18.9492 30.4922 18.8262 30.5508 18.7676 30.5625C18.7324 30.5742 18.6855 30.5801 18.627 30.5801C18.4277 30.5801 18.1641 30.5273 17.8359 30.4219C17.5195 30.3281 17.1973 30.2051 16.8691 30.0527C16.541 29.9121 16.2363 29.7598 15.9551 29.5957C15.6855 29.4199 15.5039 29.2559 15.4102 29.1035C15.3398 28.9746 15.2871 28.8105 15.252 28.6113C15.2285 28.4004 15.2168 28.1602 15.2168 27.8906C15.2168 27.6562 15.2285 27.4102 15.252 27.1523C15.2754 26.8828 15.3047 26.6309 15.3398 26.3965C15.3867 26.1504 15.4336 25.9277 15.4805 25.7285C15.5391 25.5293 15.6035 25.3711 15.6738 25.2539C15.7559 25.0898 15.8848 24.8848 16.0605 24.6387C16.2363 24.3809 16.4355 24.1172 16.6582 23.8477C16.8926 23.5664 17.1387 23.2852 17.3965 23.0039C17.6543 22.7227 17.9121 22.4707 18.1699 22.248C18.4277 22.0137 18.6738 21.8262 18.9082 21.6855C19.1543 21.5332 19.3711 21.4512 19.5586 21.4395C19.5703 21.4395 19.5762 21.4395 19.5762 21.4395C19.5879 21.4277 19.6055 21.4219 19.6289 21.4219C19.8164 21.4219 20.0039 21.5039 20.1914 21.668C20.3789 21.832 20.543 22.0312 20.6836 22.2656C20.8242 22.5 20.9355 22.752 21.0176 23.0215C21.1113 23.2793 21.1582 23.5137 21.1582 23.7246C21.1582 23.8301 21.1523 23.9062 21.1406 23.9531C21.0938 24.1406 20.9883 24.375 20.8242 24.6562C20.6602 24.9258 20.4785 25.1953 20.2793 25.4648C20.0801 25.7227 19.8867 25.957 19.6992 26.168C19.5117 26.3672 19.3711 26.502 19.2773 26.5723C19.207 26.6309 19.0781 26.6895 18.8906 26.748C18.7148 26.7949 18.5039 26.8477 18.2578 26.9062C18.0234 26.9531 17.7715 27 17.502 27.0469C17.2324 27.0938 16.9688 27.1348 16.7109 27.1699C16.6641 27.4043 16.6289 27.6094 16.6055 27.7852C16.582 27.9492 16.5645 28.0664 16.5527 28.1367C16.5762 28.2656 16.6465 28.3945 16.7637 28.5234C16.8809 28.6523 17.0273 28.7695 17.2031 28.875C17.3789 28.9805 17.5723 29.0684 17.7832 29.1387C18.0059 29.1973 18.2285 29.2266 18.4512 29.2266C18.498 29.2266 18.5449 29.2266 18.5918 29.2266C18.6504 29.2266 18.7031 29.2207 18.75 29.209C18.9609 29.1504 19.2422 29.0156 19.5938 28.8047C19.9453 28.5938 20.3086 28.3535 20.6836 28.084C21.0703 27.8145 21.4336 27.5391 21.7734 27.2578C22.125 26.9648 22.3945 26.707 22.582 26.4844L23.2324 27.75ZM24.1641 28.9453C24.293 28.9453 24.4629 28.8809 24.6738 28.752C24.8848 28.6113 25.1133 28.4297 25.3594 28.207C25.6055 27.9844 25.8574 27.7324 26.1152 27.4512C26.3848 27.1699 26.6426 26.8887 26.8887 26.6074C27.0176 26.1973 27.1816 25.6992 27.3809 25.1133C27.5918 24.5156 27.8262 23.8711 28.084 23.1797L27.8379 23.6543C27.8027 23.4785 27.7441 23.3145 27.6621 23.1621C27.5801 23.0098 27.4863 22.875 27.3809 22.7578C27.2754 22.6289 27.1641 22.5293 27.0469 22.459C26.9414 22.3887 26.8477 22.3535 26.7656 22.3535C26.707 22.3535 26.666 22.3652 26.6426 22.3887C26.5957 22.4238 26.4902 22.5352 26.3262 22.7227C26.1738 22.8984 25.9863 23.1211 25.7637 23.3906C25.5527 23.6602 25.3242 23.959 25.0781 24.2871C24.8438 24.6152 24.6211 24.9375 24.4102 25.2539C24.2109 25.5703 24.0352 25.8691 23.8828 26.1504C23.7305 26.4199 23.6426 26.6367 23.6191 26.8008C23.5957 26.9648 23.5723 27.1348 23.5488 27.3105C23.5254 27.4746 23.5137 27.6387 23.5137 27.8027C23.5137 28.1074 23.5547 28.3711 23.6367 28.5938C23.7305 28.8164 23.8945 28.9336 24.1289 28.9453H24.1641ZM32.0918 27.7676C31.9395 27.9434 31.7227 28.1895 31.4414 28.5059C31.1602 28.8223 30.8555 29.1387 30.5273 29.4551C30.2109 29.7598 29.8887 30.0234 29.5605 30.2461C29.2441 30.4805 28.9746 30.5977 28.752 30.5977H28.7168C28.4941 30.5977 28.2539 30.5684 27.9961 30.5098C27.7383 30.4512 27.498 30.3691 27.2754 30.2637C27.0645 30.1699 26.8828 30.0586 26.7305 29.9297C26.5898 29.7891 26.5195 29.6367 26.5195 29.4727V29.4551C26.5195 29.3379 26.5254 29.2031 26.5371 29.0508C26.5488 28.8867 26.5605 28.7168 26.5723 28.541C26.0684 29.0332 25.5645 29.4434 25.0605 29.7715C24.5684 30.0996 24.1348 30.2637 23.7598 30.2637C23.666 30.2637 23.6016 30.2578 23.5664 30.2461C23.3555 30.2109 23.1621 30.1113 22.9863 29.9473C22.8105 29.7715 22.6582 29.5605 22.5293 29.3145C22.4121 29.0566 22.3184 28.7754 22.248 28.4707C22.1777 28.166 22.1426 27.8613 22.1426 27.5566C22.1426 27.1113 22.2129 26.6953 22.3535 26.3086C22.4473 26.0625 22.582 25.7695 22.7578 25.4297C22.9336 25.0898 23.1328 24.7324 23.3555 24.3574C23.5898 23.9824 23.8359 23.6133 24.0938 23.25C24.3633 22.875 24.627 22.5352 24.8848 22.2305C25.1543 21.9258 25.418 21.6797 25.6758 21.4922C25.9336 21.293 26.1738 21.1758 26.3965 21.1406C26.4551 21.1289 26.5078 21.123 26.5547 21.123C26.6016 21.123 26.6484 21.123 26.6953 21.123C26.9414 21.123 27.1582 21.1582 27.3457 21.2285C27.5449 21.2988 27.7148 21.3926 27.8555 21.5098C28.0078 21.6152 28.1309 21.7324 28.2246 21.8613C28.3184 21.9902 28.3887 22.1074 28.4355 22.2129C28.4707 22.0723 28.5117 21.9609 28.5586 21.8789L29.7012 22.0547C29.3848 22.8516 29.0918 23.6602 28.8223 24.4805C28.5527 25.2891 28.3418 26.0625 28.1895 26.8008L28.207 26.8535L28.1719 26.8887C28.1016 27.2402 28.043 27.5742 27.9961 27.8906C27.9609 28.207 27.9434 28.5 27.9434 28.7695C27.9434 28.8984 27.9434 29.0098 27.9434 29.1035C27.9551 29.1973 27.9668 29.291 27.9785 29.3848C28.2715 29.2793 28.5996 29.1211 28.9629 28.9102C29.3379 28.6992 29.7012 28.4648 30.0527 28.207C30.416 27.9492 30.7559 27.6855 31.0723 27.416C31.3887 27.1348 31.6465 26.8887 31.8457 26.6777L32.0918 27.7676ZM35.4316 18.4688C35.1855 18.8203 34.9629 19.2129 34.7637 19.6465C34.5645 20.0801 34.3828 20.5312 34.2188 21C34.0664 21.457 33.9316 21.9141 33.8145 22.3711C33.6973 22.8281 33.6094 23.2559 33.5508 23.6543C33.7148 23.3379 33.8906 22.9688 34.0781 22.5469C34.2656 22.1133 34.4473 21.6621 34.623 21.1934C34.7988 20.7129 34.957 20.2383 35.0977 19.7695C35.25 19.3008 35.3613 18.8672 35.4316 18.4688ZM37.6289 28.207C37.4062 28.4883 37.2129 28.7402 37.0488 28.9629C36.8848 29.1738 36.7207 29.3672 36.5566 29.543C36.3926 29.707 36.2168 29.8594 36.0293 30C35.8418 30.1289 35.625 30.2578 35.3789 30.3867C35.0742 30.5273 34.6758 30.5977 34.1836 30.5977C33.8906 30.5977 33.5859 30.5684 33.2695 30.5098C32.9531 30.4512 32.6602 30.3574 32.3906 30.2285C32.1328 30.1113 31.9102 29.959 31.7227 29.7715C31.5352 29.584 31.4238 29.3613 31.3887 29.1035C31.377 29.0449 31.3711 28.9863 31.3711 28.9277C31.3711 28.8574 31.3711 28.7754 31.3711 28.6816C31.3711 28.3066 31.4004 27.7852 31.459 27.1172C31.5293 26.4492 31.6289 25.7168 31.7578 24.9199C31.8867 24.123 32.0449 23.3027 32.2324 22.459C32.4316 21.6035 32.6602 20.8066 32.918 20.0684C33.1758 19.3184 33.4629 18.6562 33.7793 18.082C34.0957 17.5078 34.4414 17.0977 34.8164 16.8516C34.9453 16.7578 35.0801 16.6934 35.2207 16.6582C35.373 16.623 35.5137 16.6055 35.6426 16.6055C35.9707 16.6055 36.2578 16.6992 36.5039 16.8867C36.7617 17.0625 36.9199 17.2383 36.9785 17.4141V17.4668C36.9785 17.5957 36.9258 17.8418 36.8203 18.2051C36.7266 18.5566 36.5918 18.9844 36.416 19.4883C36.2402 19.9805 36.0293 20.5254 35.7832 21.123C35.5371 21.7207 35.2734 22.3242 34.9922 22.9336C34.7109 23.543 34.4121 24.1406 34.0957 24.7266C33.791 25.3125 33.4805 25.8398 33.1641 26.3086C33.1523 26.3672 33.1289 26.4609 33.0938 26.5898C33.0703 26.7188 33.0469 26.8711 33.0234 27.0469C33 27.2227 32.9766 27.416 32.9531 27.627C32.9297 27.8262 32.918 28.0312 32.918 28.2422C32.918 28.5938 32.959 28.9277 33.041 29.2441C33.123 29.5488 33.2812 29.7656 33.5156 29.8945C33.8906 29.7891 34.2363 29.6367 34.5527 29.4375C34.8691 29.2266 35.168 28.9922 35.4492 28.7344C35.7422 28.4648 36.0293 28.1777 36.3105 27.873C36.5918 27.5566 36.8848 27.2344 37.1895 26.9062L37.6289 28.207ZM39 29.0332C39.0703 29.0684 39.1641 29.0859 39.2812 29.0859C39.5742 29.0859 39.9082 28.9805 40.2832 28.7695C40.6699 28.5586 41.0449 28.3125 41.4082 28.0312C41.7715 27.7383 42.1055 27.4453 42.4102 27.1523C42.7148 26.8477 42.9375 26.6133 43.0781 26.4492L43.6758 27.5742C43.5586 27.7148 43.3242 27.9434 42.9727 28.2598C42.6328 28.5762 42.2578 28.8984 41.8477 29.2266C41.4375 29.543 41.0391 29.8242 40.6523 30.0703C40.2656 30.3281 39.9727 30.4629 39.7734 30.4746C39.75 30.4746 39.7324 30.4746 39.7207 30.4746C39.709 30.4863 39.6914 30.4922 39.668 30.4922C39.457 30.4922 39.1992 30.4453 38.8945 30.3516C38.6016 30.2695 38.3145 30.1523 38.0332 30C37.752 29.8359 37.5059 29.6426 37.2949 29.4199C37.084 29.1973 36.9668 28.957 36.9434 28.6992V28.6289C36.9434 28.4414 36.9785 28.1367 37.0488 27.7148C37.1309 27.293 37.2363 26.8066 37.3652 26.2559C37.5059 25.6934 37.6582 25.0898 37.8223 24.4453C37.998 23.7891 38.1797 23.1387 38.3672 22.4941C37.8047 22.5293 37.3418 22.6113 36.9785 22.7402C36.6152 22.8574 36.3574 22.9277 36.2051 22.9512L36.082 21.668C36.5742 21.5508 37.0195 21.457 37.418 21.3867C37.8164 21.3047 38.2559 21.2578 38.7363 21.2461C38.9473 20.5195 39.1523 19.8809 39.3516 19.3301C39.5508 18.7676 39.7148 18.3691 39.8438 18.1348L41.4434 18.1875C41.3145 18.3867 41.1387 18.7734 40.916 19.3477C40.6934 19.9219 40.4648 20.6016 40.2305 21.3867C40.6055 21.4688 40.9922 21.5625 41.3906 21.668C41.7891 21.7734 42.1641 21.8262 42.5156 21.8262C42.7266 21.8262 42.9375 21.791 43.1484 21.7207L43.3418 22.9863C43.2832 22.998 43.2188 23.0039 43.1484 23.0039C43.0898 23.0039 43.0254 23.0039 42.9551 23.0039C42.6152 23.0039 42.2109 22.9688 41.7422 22.8984C41.2734 22.8164 40.7754 22.7109 40.248 22.582C40.1426 22.5703 40.0195 22.5527 39.8789 22.5293C39.7266 23.0566 39.5801 23.5957 39.4395 24.1465C39.3105 24.6855 39.1934 25.207 39.0879 25.7109C38.9824 26.2031 38.8945 26.666 38.8242 27.0996C38.7656 27.5332 38.7363 27.9023 38.7363 28.207C38.7363 28.4414 38.7539 28.6348 38.7891 28.7871C38.8359 28.9277 38.9062 29.0098 39 29.0332ZM45.3457 22.6348C45.5215 22.3301 45.7031 21.9785 45.8906 21.5801C46.0781 21.1816 46.248 20.7773 46.4004 20.3672C46.5645 19.957 46.6992 19.5645 46.8047 19.1895C46.9102 18.8145 46.9629 18.498 46.9629 18.2402C46.9629 18.0996 46.9395 17.9707 46.8926 17.8535C46.7285 18.1348 46.5586 18.4922 46.3828 18.9258C46.2188 19.3594 46.0664 19.8105 45.9258 20.2793C45.7852 20.7363 45.6621 21.1816 45.5566 21.6152C45.4512 22.0371 45.3809 22.377 45.3457 22.6348ZM52.834 28.1367C52.5176 28.6055 52.1836 28.9805 51.832 29.2617C51.4922 29.543 51.1523 29.7656 50.8125 29.9297C50.4844 30.082 50.1621 30.1816 49.8457 30.2285C49.541 30.2871 49.2656 30.3164 49.0195 30.3164C48.8906 30.3164 48.7734 30.3105 48.668 30.2988C48.5742 30.2988 48.4922 30.293 48.4219 30.2812C48.3398 30.2695 48.2695 30.252 48.2109 30.2285C47.8477 30.1113 47.5957 29.9062 47.4551 29.6133C47.3262 29.3203 47.2617 28.9688 47.2617 28.5586C47.2617 28.1484 47.3086 27.7031 47.4023 27.2227C47.5078 26.7422 47.6191 26.2676 47.7363 25.7988C47.8652 25.3184 47.9824 24.8672 48.0879 24.4453C48.1934 24.0234 48.2461 23.666 48.2461 23.373C48.2461 23.2793 48.2344 23.1738 48.2109 23.0566C47.8711 23.1621 47.5254 23.3145 47.1738 23.5137C46.834 23.7129 46.5059 23.9414 46.1895 24.1992C45.8848 24.4453 45.6035 24.7207 45.3457 25.0254C45.0879 25.3184 44.8887 25.6113 44.748 25.9043C44.6426 26.1152 44.5723 26.2207 44.5371 26.2207C44.5371 26.2207 44.5312 26.209 44.5195 26.1855L43.6934 30.0879L42.1641 29.7012C42.2227 29.4316 42.3105 29.0566 42.4277 28.5762C42.5449 28.0957 42.6738 27.5508 42.8145 26.9414C42.9668 26.3203 43.1309 25.6641 43.3066 24.9727C43.4941 24.2695 43.6816 23.5664 43.8691 22.8633C44.0566 22.1602 44.25 21.4746 44.4492 20.8066C44.6484 20.1387 44.8418 19.5352 45.0293 18.9961C45.2168 18.4453 45.3926 17.9824 45.5566 17.6074C45.7324 17.2207 45.8848 16.9629 46.0137 16.834C46.1426 16.7051 46.2715 16.6172 46.4004 16.5703C46.541 16.5117 46.6758 16.4824 46.8047 16.4824C46.9922 16.4824 47.168 16.541 47.332 16.6582C47.5078 16.7637 47.6602 16.9043 47.7891 17.0801C47.918 17.2559 48.0176 17.4551 48.0879 17.6777C48.1699 17.8887 48.2109 18.0996 48.2109 18.3105C48.2109 18.4277 48.1758 18.6094 48.1055 18.8555C48.0352 19.1016 47.9355 19.3945 47.8066 19.7344C47.6895 20.0742 47.5488 20.4492 47.3848 20.8594C47.2207 21.2695 47.0449 21.7031 46.8574 22.1602C47.0918 21.9844 47.3027 21.8555 47.4902 21.7734C47.6895 21.6914 47.8945 21.6387 48.1055 21.6152H48.1582C48.2871 21.6152 48.457 21.668 48.668 21.7734C48.8906 21.8672 49.1016 21.9844 49.3008 22.125C49.5117 22.2539 49.6875 22.3887 49.8281 22.5293C49.9805 22.6699 50.0566 22.7812 50.0566 22.8633V22.8984C50.0332 23.168 49.9453 23.543 49.793 24.0234C49.6406 24.4922 49.4766 24.9961 49.3008 25.5352C49.125 26.0742 48.9668 26.6016 48.8262 27.1172C48.6855 27.6328 48.6152 28.0723 48.6152 28.4355C48.6152 28.7988 48.7031 29.0391 48.8789 29.1562C48.9023 29.168 48.9375 29.1797 48.9844 29.1914C49.0312 29.2031 49.1309 29.209 49.2832 29.209C49.4238 29.209 49.5938 29.1855 49.793 29.1387C50.0039 29.0918 50.2324 28.9922 50.4785 28.8398C50.7363 28.6875 51.0059 28.4707 51.2871 28.1895C51.5801 27.8965 51.8848 27.5156 52.2012 27.0469L52.834 28.1367ZM53.7305 35.3438C53.8711 35.1562 54.0176 34.9043 54.1699 34.5879C54.3223 34.2832 54.4746 33.9492 54.627 33.5859C54.791 33.2227 54.9434 32.8477 55.084 32.4609C55.2246 32.0742 55.3594 31.7051 55.4883 31.3535C55.3828 31.4707 55.2422 31.6934 55.0664 32.0215C54.8906 32.3496 54.709 32.7129 54.5215 33.1113C54.3457 33.5098 54.1816 33.9082 54.0293 34.3066C53.877 34.7168 53.7773 35.0625 53.7305 35.3438ZM53.8359 21.7559C53.9531 21.8262 54.1582 21.8613 54.4512 21.8613C54.6855 21.8613 54.9082 21.8496 55.1191 21.8262C55.3418 21.791 55.4707 21.7676 55.5059 21.7559C55.1191 22.6582 54.7734 23.5254 54.4688 24.3574C54.3398 24.709 54.2109 25.0781 54.082 25.4648C53.9531 25.8398 53.8418 26.209 53.748 26.5723C53.6543 26.9355 53.5781 27.2871 53.5195 27.627C53.4609 27.9551 53.4316 28.248 53.4316 28.5059V28.5938C53.6309 28.6523 53.8242 28.6816 54.0117 28.6816C54.2109 28.6816 54.4102 28.6406 54.6094 28.5586C54.8203 28.4648 55.0254 28.3008 55.2246 28.0664C55.3301 27.9375 55.4707 27.75 55.6465 27.5039C55.8223 27.2578 56.0156 26.9766 56.2266 26.6602C56.4375 26.3438 56.6543 26.0039 56.877 25.6406C57.1113 25.2656 57.3281 24.8965 57.5273 24.5332C57.7031 24.2402 57.8613 23.9297 58.002 23.6016C58.1309 23.332 58.2539 23.0215 58.3711 22.6699C58.4883 22.3184 58.5703 21.9668 58.6172 21.6152L60.0586 21.8262C59.8477 22.4707 59.625 23.127 59.3906 23.7949C59.168 24.4629 58.957 25.0781 58.7578 25.6406C58.5352 26.2852 58.3125 26.918 58.0898 27.5391C58.5469 27.3164 58.998 27.0996 59.4434 26.8887C59.8184 26.7129 60.2109 26.543 60.6211 26.3789C61.0312 26.2031 61.3887 26.0684 61.6934 25.9746L61.4121 27.3281C61.1543 27.4688 60.8438 27.627 60.4805 27.8027C60.1289 27.9668 59.7656 28.1484 59.3906 28.3477C59.0156 28.5352 58.6523 28.7344 58.3008 28.9453C57.9609 29.1445 57.668 29.3379 57.4219 29.5254C57.1406 30.3457 56.8652 31.1484 56.5957 31.9336C56.3379 32.7305 56.0918 33.4512 55.8574 34.0957C55.6348 34.7402 55.4355 35.291 55.2598 35.748C55.0957 36.2051 54.9727 36.5098 54.8906 36.6621C54.7383 36.9668 54.5215 37.1836 54.2402 37.3125C53.9707 37.4414 53.6895 37.5059 53.3965 37.5059C53.0449 37.5059 52.7344 37.4238 52.4648 37.2598C52.1953 37.0957 52.0605 36.8672 52.0605 36.5742C52.0605 36.5391 52.0664 36.5156 52.0781 36.5039C52.1016 36.2461 52.1719 35.918 52.2891 35.5195C52.418 35.1328 52.5879 34.7051 52.7988 34.2363C53.0098 33.7676 53.25 33.2754 53.5195 32.7598C53.8008 32.2441 54.1055 31.7402 54.4336 31.248C54.7617 30.7559 55.1016 30.293 55.4531 29.8594C55.8164 29.4258 56.1797 29.0449 56.543 28.7168C56.5781 28.6816 56.6133 28.6523 56.6484 28.6289C56.6836 28.5938 56.7188 28.5586 56.7539 28.5234L57.2988 26.959C57.1113 27.3105 56.9121 27.6328 56.7012 27.9258C56.502 28.207 56.3027 28.4648 56.1035 28.6992C55.916 28.9336 55.7344 29.1445 55.5586 29.332C55.3945 29.5078 55.2598 29.6543 55.1543 29.7715C55.0605 29.8535 54.9082 29.918 54.6973 29.9648C54.4863 30 54.2402 30.0176 53.959 30.0176C53.7012 30.0176 53.4375 30 53.168 29.9648C52.8984 29.918 52.6465 29.8535 52.4121 29.7715C52.1895 29.6777 52.0078 29.5605 51.8672 29.4199C51.7266 29.2676 51.6562 29.0918 51.6562 28.8926C51.6562 28.7051 51.7031 28.4355 51.7969 28.084C51.8906 27.7207 52.0078 27.3223 52.1484 26.8887C52.2891 26.4434 52.4414 25.9746 52.6055 25.4824C52.7812 24.9902 52.9453 24.5098 53.0977 24.041C53.2617 23.5723 53.4082 23.1387 53.5371 22.7402C53.666 22.3418 53.7656 22.0137 53.8359 21.7559ZM70.8516 28.3301C71.0742 28.2363 71.3555 28.084 71.6953 27.873C72.0469 27.6621 72.4277 27.4336 72.8379 27.1875C72.498 26.6016 72.1582 26.0156 71.8184 25.4297C71.4785 24.832 71.1914 24.2695 70.957 23.7422C70.3125 24.2344 69.75 24.7031 69.2695 25.1484C68.7891 25.5938 68.502 25.9863 68.4082 26.3262C68.373 26.502 68.3555 26.666 68.3555 26.8184C68.3555 27.334 68.5195 27.7441 68.8477 28.0488C69.1875 28.3535 69.5859 28.5059 70.043 28.5059C70.3125 28.5059 70.582 28.4473 70.8516 28.3301ZM72.1523 19.4004C72.0352 19.7168 71.9531 20.0273 71.9062 20.332C71.8594 20.625 71.8359 20.9062 71.8359 21.1758C71.8359 21.2461 71.8359 21.3223 71.8359 21.4043C71.8359 21.4863 71.8418 21.5625 71.8535 21.6328C72.1113 21.4102 72.3516 21.1992 72.5742 21C72.7969 20.7891 73.0078 20.584 73.207 20.3848C73.4414 20.1152 73.6289 19.8516 73.7695 19.5938C73.9219 19.3242 73.998 19.0781 73.998 18.8555C73.998 18.6562 73.916 18.4922 73.752 18.3633C73.5645 18.2344 73.4004 18.1699 73.2598 18.1699C72.8379 18.1699 72.4688 18.5801 72.1523 19.4004ZM74.7012 27.5391C75.041 28.1016 75.3457 28.582 75.6152 28.9805C75.8965 29.3789 76.1133 29.625 76.2656 29.7188L75.1582 30.7383C75.041 30.5859 74.8242 30.2812 74.5078 29.8242C74.2031 29.3672 73.8574 28.8281 73.4707 28.207C72.9902 28.4531 72.5039 28.6934 72.0117 28.9277C71.5312 29.1504 71.0742 29.3496 70.6406 29.5254C70.2188 29.6895 69.832 29.8242 69.4805 29.9297C69.1406 30.0352 68.8711 30.0879 68.6719 30.0879C68.6133 30.0879 68.5723 30.082 68.5488 30.0703C68.3379 30.0352 68.1387 29.9062 67.9512 29.6836C67.7637 29.4609 67.5996 29.1855 67.459 28.8574C67.3184 28.5176 67.207 28.1484 67.125 27.75C67.043 27.3516 67.002 26.9648 67.002 26.5898C67.002 26.25 67.043 25.9395 67.125 25.6582C67.207 25.3652 67.3359 25.1191 67.5117 24.9199C67.7344 24.6973 68.1211 24.3926 68.6719 24.0059C69.2344 23.6074 69.8379 23.1621 70.4824 22.6699C70.4355 22.541 70.3945 22.4238 70.3594 22.3184C70.3359 22.2012 70.3125 22.0898 70.2891 21.9844C70.2773 21.9258 70.2656 21.8613 70.2539 21.791C70.2539 21.7207 70.2539 21.6504 70.2539 21.5801C70.2539 21.0879 70.377 20.5664 70.623 20.0156C70.8691 19.4531 71.1621 18.9375 71.502 18.4688C71.8535 17.9883 72.2227 17.5957 72.6094 17.291C72.9961 16.9746 73.3301 16.8164 73.6113 16.8164C73.6348 16.8164 73.6523 16.8223 73.6641 16.834C73.8867 16.8574 74.0859 16.9336 74.2617 17.0625C74.4492 17.1914 74.6074 17.3555 74.7363 17.5547C74.8652 17.7539 74.959 17.9824 75.0176 18.2402C75.0879 18.498 75.123 18.7676 75.123 19.0488C75.123 19.2363 75.1055 19.4238 75.0703 19.6113C75.0469 19.7871 75.0059 19.9688 74.9473 20.1562C74.8887 20.3203 74.7715 20.5078 74.5957 20.7188C74.4316 20.918 74.2266 21.1289 73.9805 21.3516C73.7344 21.5742 73.4531 21.8086 73.1367 22.0547C72.8203 22.3008 72.498 22.5527 72.1699 22.8105C72.3457 23.2324 72.6035 23.7715 72.9434 24.4277C73.2949 25.084 73.6641 25.752 74.0508 26.4316C74.2852 26.2793 74.5371 26.1152 74.8066 25.9395C75.0293 25.7871 75.2812 25.623 75.5625 25.4473C75.8438 25.2598 76.1191 25.0723 76.3887 24.8848L77.0918 25.9922C76.8574 26.1914 76.5293 26.4258 76.1074 26.6953C75.6973 26.9531 75.2285 27.2344 74.7012 27.5391ZM97.2188 17.4668C97.0547 17.5723 96.8203 17.6953 96.5156 17.8359C96.2227 17.9766 95.8945 18.1172 95.5312 18.2578C95.1797 18.3867 94.8164 18.5039 94.4414 18.6094C94.0664 18.7148 93.7207 18.7852 93.4043 18.8203C93.3223 19.0312 93.2109 19.3242 93.0703 19.6992C92.9414 20.0625 92.7949 20.4668 92.6309 20.9121C92.4785 21.3574 92.3203 21.8262 92.1562 22.3184C92.0039 22.7988 91.8516 23.2617 91.6992 23.707C91.5586 24.1406 91.4297 24.5391 91.3125 24.9023C91.1953 25.2656 91.1074 25.5469 91.0488 25.7461C90.9434 26.1328 90.8203 26.5254 90.6797 26.9238C90.5391 27.3223 90.3809 27.7031 90.2051 28.0664C90.041 28.418 89.8594 28.7402 89.6602 29.0332C89.4727 29.3262 89.2676 29.5547 89.0449 29.7188C88.8223 29.8828 88.4941 30 88.0605 30.0703C87.627 30.1523 87.1641 30.1934 86.6719 30.1934C86.2031 30.1934 85.7695 30.1523 85.3711 30.0703C84.9727 30 84.7031 29.8945 84.5625 29.7539C84.4453 29.6367 84.3105 29.3965 84.1582 29.0332C84.0059 28.6699 83.8594 28.248 83.7188 27.7676C83.5781 27.2871 83.4609 26.7832 83.3672 26.2559C83.2617 25.7285 83.209 25.2422 83.209 24.7969V24.7617C83.209 24.5508 83.291 24.3809 83.4551 24.252C83.6309 24.123 83.8066 24.0586 83.9824 24.0586C84.0527 24.0586 84.123 24.0762 84.1934 24.1113C84.6035 24.3809 85.0137 24.6152 85.4238 24.8145C85.8457 25.0137 86.2266 25.1133 86.5664 25.1133H86.584H86.8828C86.9766 25.1133 87.0703 25.1133 87.1641 25.1133C87.2695 25.1016 87.3691 25.0957 87.4629 25.0957H87.8145L87.6738 26.3438C87.1582 26.332 86.666 26.3086 86.1973 26.2734C85.7402 26.2266 85.3066 26.0977 84.8965 25.8867C84.8848 26.0156 84.8789 26.1562 84.8789 26.3086C84.8789 26.4492 84.8789 26.5957 84.8789 26.748C84.8789 26.9121 84.8789 27.0703 84.8789 27.2227C84.8906 27.375 84.9023 27.498 84.9141 27.5918C84.9375 27.7441 85.0137 27.9082 85.1426 28.084C85.2715 28.248 85.4355 28.4004 85.6348 28.541C85.834 28.6816 86.0566 28.7988 86.3027 28.8926C86.5605 28.9863 86.8184 29.0332 87.0762 29.0332C87.123 29.0332 87.1641 29.0332 87.1992 29.0332C87.2461 29.0215 87.293 29.0156 87.3398 29.0156C87.5273 28.9922 87.7148 28.8809 87.9023 28.6816C88.1016 28.4707 88.2891 28.2188 88.4648 27.9258C88.6523 27.6211 88.8223 27.2871 88.9746 26.9238C89.1387 26.5488 89.2852 26.1855 89.4141 25.834C89.5547 25.4707 89.6719 25.1309 89.7656 24.8145C89.8594 24.498 89.9297 24.2402 89.9766 24.041C90.0117 23.8652 90.0703 23.6309 90.1523 23.3379C90.2344 23.0332 90.3281 22.6992 90.4336 22.3359C90.5508 21.9727 90.668 21.5977 90.7852 21.2109C90.9141 20.8125 91.043 20.4375 91.1719 20.0859C91.3008 19.7227 91.4238 19.3945 91.541 19.1016C91.6699 18.8086 91.7812 18.5742 91.875 18.3984C91.6641 18.293 91.4355 18.1875 91.1895 18.082C90.9434 17.9766 90.6914 17.8828 90.4336 17.8008C90.1875 17.707 89.9473 17.6309 89.7129 17.5723C89.4785 17.5137 89.2734 17.4844 89.0977 17.4844C88.9219 17.4844 88.7754 17.5137 88.6582 17.5723C88.5293 17.666 88.3711 17.7949 88.1836 17.959C88.0195 18.0996 87.8262 18.2871 87.6035 18.5215C87.3809 18.7441 87.1172 19.0254 86.8125 19.3652L85.6523 18.6445C85.7812 18.4336 85.9805 18.1934 86.25 17.9238C86.5312 17.6426 86.8359 17.3789 87.1641 17.1328C87.5039 16.8867 87.8438 16.6758 88.1836 16.5C88.5234 16.3242 88.8223 16.2363 89.0801 16.2363H89.2207C89.4316 16.2832 89.7188 16.377 90.082 16.5176C90.4453 16.6465 90.8262 16.7812 91.2246 16.9219C91.623 17.0625 92.0098 17.1914 92.3848 17.3086C92.7715 17.4141 93.0996 17.4668 93.3691 17.4668C93.4277 17.4668 93.5156 17.4551 93.6328 17.4316C93.8203 17.3848 94.043 17.3086 94.3008 17.2031C94.5234 17.1094 94.793 16.9922 95.1094 16.8516C95.4258 16.7109 95.8008 16.5234 96.2344 16.2891L97.2188 17.4668ZM98.6426 22.7402C98.5488 22.7402 98.4199 22.8105 98.2559 22.9512C98.1035 23.0918 97.9336 23.2793 97.7461 23.5137C97.5703 23.7363 97.3828 24 97.1836 24.3047C96.9844 24.6094 96.8086 24.9258 96.6562 25.2539C96.5977 25.3711 96.5449 25.4883 96.498 25.6055C96.4512 25.7227 96.4043 25.8457 96.3574 25.9746C96.6621 25.916 96.9785 25.8457 97.3066 25.7637C97.6465 25.6699 97.8984 25.5703 98.0625 25.4648C98.1445 25.4062 98.2324 25.2891 98.3262 25.1133C98.4316 24.9375 98.5254 24.7441 98.6074 24.5332C98.7012 24.3105 98.7773 24.082 98.8359 23.8477C98.8945 23.6016 98.9238 23.3906 98.9238 23.2148C98.9238 23.0859 98.9004 22.9746 98.8535 22.8809C98.8066 22.7871 98.7363 22.7402 98.6426 22.7402ZM102.545 27.75C102.334 27.9023 102.088 28.0781 101.807 28.2773C101.525 28.4648 101.227 28.6641 100.91 28.875C100.605 29.0742 100.295 29.2734 99.9785 29.4727C99.6738 29.6719 99.3867 29.8477 99.1172 30C98.8594 30.1641 98.6367 30.293 98.4492 30.3867C98.2617 30.4922 98.1387 30.5508 98.0801 30.5625C98.0449 30.5742 97.998 30.5801 97.9395 30.5801C97.7402 30.5801 97.4766 30.5273 97.1484 30.4219C96.832 30.3281 96.5098 30.2051 96.1816 30.0527C95.8535 29.9121 95.5488 29.7598 95.2676 29.5957C94.998 29.4199 94.8164 29.2559 94.7227 29.1035C94.6523 28.9746 94.5996 28.8105 94.5645 28.6113C94.541 28.4004 94.5293 28.1602 94.5293 27.8906C94.5293 27.6562 94.541 27.4102 94.5645 27.1523C94.5879 26.8828 94.6172 26.6309 94.6523 26.3965C94.6992 26.1504 94.7461 25.9277 94.793 25.7285C94.8516 25.5293 94.916 25.3711 94.9863 25.2539C95.0684 25.0898 95.1973 24.8848 95.373 24.6387C95.5488 24.3809 95.748 24.1172 95.9707 23.8477C96.2051 23.5664 96.4512 23.2852 96.709 23.0039C96.9668 22.7227 97.2246 22.4707 97.4824 22.248C97.7402 22.0137 97.9863 21.8262 98.2207 21.6855C98.4668 21.5332 98.6836 21.4512 98.8711 21.4395C98.8828 21.4395 98.8887 21.4395 98.8887 21.4395C98.9004 21.4277 98.918 21.4219 98.9414 21.4219C99.1289 21.4219 99.3164 21.5039 99.5039 21.668C99.6914 21.832 99.8555 22.0312 99.9961 22.2656C100.137 22.5 100.248 22.752 100.33 23.0215C100.424 23.2793 100.471 23.5137 100.471 23.7246C100.471 23.8301 100.465 23.9062 100.453 23.9531C100.406 24.1406 100.301 24.375 100.137 24.6562C99.9727 24.9258 99.791 25.1953 99.5918 25.4648C99.3926 25.7227 99.1992 25.957 99.0117 26.168C98.8242 26.3672 98.6836 26.502 98.5898 26.5723C98.5195 26.6309 98.3906 26.6895 98.2031 26.748C98.0273 26.7949 97.8164 26.8477 97.5703 26.9062C97.3359 26.9531 97.084 27 96.8145 27.0469C96.5449 27.0938 96.2812 27.1348 96.0234 27.1699C95.9766 27.4043 95.9414 27.6094 95.918 27.7852C95.8945 27.9492 95.877 28.0664 95.8652 28.1367C95.8887 28.2656 95.959 28.3945 96.0762 28.5234C96.1934 28.6523 96.3398 28.7695 96.5156 28.875C96.6914 28.9805 96.8848 29.0684 97.0957 29.1387C97.3184 29.1973 97.541 29.2266 97.7637 29.2266C97.8105 29.2266 97.8574 29.2266 97.9043 29.2266C97.9629 29.2266 98.0156 29.2207 98.0625 29.209C98.2734 29.1504 98.5547 29.0156 98.9062 28.8047C99.2578 28.5938 99.6211 28.3535 99.9961 28.084C100.383 27.8145 100.746 27.5391 101.086 27.2578C101.438 26.9648 101.707 26.707 101.895 26.4844L102.545 27.75ZM104.689 29.1562C104.818 29.1562 104.953 29.1387 105.094 29.1035C105.117 29.0918 105.141 29.0801 105.164 29.0684C105.199 29.0566 105.234 29.0449 105.27 29.0332C105.398 28.9746 105.51 28.8691 105.604 28.7168C105.709 28.5527 105.791 28.3711 105.85 28.1719C105.92 27.9727 105.967 27.7617 105.99 27.5391C106.025 27.3164 106.043 27.1055 106.043 26.9062C106.043 26.6836 106.02 26.4844 105.973 26.3086C105.938 26.1211 105.879 25.9512 105.797 25.7988C105.727 25.6348 105.645 25.4824 105.551 25.3418C105.469 25.1895 105.387 25.0371 105.305 24.8848C105.199 24.6973 105.123 24.5039 105.076 24.3047C105.029 24.1055 104.994 23.9062 104.971 23.707L102.352 27.4512C102.539 27.5332 102.715 27.6621 102.879 27.8379C103.043 28.002 103.207 28.1777 103.371 28.3652C103.547 28.541 103.729 28.7051 103.916 28.8574C104.104 29.0098 104.314 29.1094 104.549 29.1562H104.689ZM110.314 28.207C110.244 28.2422 110.068 28.3359 109.787 28.4883C109.506 28.6289 109.166 28.7988 108.768 28.998C108.381 29.1855 107.959 29.3906 107.502 29.6133C107.045 29.8242 106.605 30.0176 106.184 30.1934C105.762 30.3809 105.381 30.5332 105.041 30.6504C104.701 30.7676 104.455 30.8262 104.303 30.8262H104.25C104.039 30.8027 103.805 30.7148 103.547 30.5625C103.301 30.4219 103.055 30.2402 102.809 30.0176C102.574 29.8066 102.346 29.5723 102.123 29.3145C101.912 29.0449 101.736 28.7871 101.596 28.541L100.436 30.4746L99.5566 29.666C99.6973 29.502 99.9023 29.2324 100.172 28.8574C100.43 28.4824 100.723 28.0547 101.051 27.5742C101.367 27.082 101.701 26.5664 102.053 26.0273C102.404 25.4766 102.744 24.9434 103.072 24.4277C103.412 23.9121 103.717 23.4375 103.986 23.0039C104.268 22.5703 104.49 22.2246 104.654 21.9668C104.725 21.5449 104.836 21.1582 104.988 20.8066C105.152 20.4434 105.346 20.2266 105.568 20.1562H105.656C105.727 20.1562 105.803 20.1914 105.885 20.2617C105.979 20.332 106.061 20.4258 106.131 20.543C106.213 20.6484 106.277 20.7656 106.324 20.8945C106.383 21.0117 106.412 21.123 106.412 21.2285C106.412 21.2871 106.406 21.3398 106.395 21.3867C106.324 21.5625 106.242 21.7793 106.148 22.0371C106.055 22.2832 105.979 22.5293 105.92 22.7754C105.896 22.8457 105.885 22.9102 105.885 22.9688C105.885 23.1445 105.932 23.3262 106.025 23.5137C106.119 23.6895 106.225 23.8652 106.342 24.041C106.471 24.2051 106.594 24.3633 106.711 24.5156C106.84 24.6562 106.934 24.7793 106.992 24.8848C107.18 25.2012 107.314 25.5352 107.396 25.8867C107.479 26.2266 107.52 26.5547 107.52 26.8711C107.52 27.0703 107.502 27.2578 107.467 27.4336C107.443 27.6094 107.402 27.7676 107.344 27.9082C107.344 27.9199 107.32 27.9668 107.273 28.0488C107.238 28.1309 107.197 28.2246 107.15 28.3301C107.104 28.4238 107.057 28.5117 107.01 28.5938C106.975 28.6758 106.957 28.7227 106.957 28.7344C107.355 28.5234 107.736 28.3242 108.1 28.1367C108.404 27.9727 108.703 27.8086 108.996 27.6445C109.301 27.4805 109.523 27.3516 109.664 27.2578L110.314 28.207ZM111.686 29.0332C111.756 29.0684 111.85 29.0859 111.967 29.0859C112.26 29.0859 112.594 28.9805 112.969 28.7695C113.355 28.5586 113.73 28.3125 114.094 28.0312C114.457 27.7383 114.791 27.4453 115.096 27.1523C115.4 26.8477 115.623 26.6133 115.764 26.4492L116.361 27.5742C116.244 27.7148 116.01 27.9434 115.658 28.2598C115.318 28.5762 114.943 28.8984 114.533 29.2266C114.123 29.543 113.725 29.8242 113.338 30.0703C112.951 30.3281 112.658 30.4629 112.459 30.4746C112.436 30.4746 112.418 30.4746 112.406 30.4746C112.395 30.4863 112.377 30.4922 112.354 30.4922C112.143 30.4922 111.885 30.4453 111.58 30.3516C111.287 30.2695 111 30.1523 110.719 30C110.438 29.8359 110.191 29.6426 109.98 29.4199C109.77 29.1973 109.652 28.957 109.629 28.6992V28.6289C109.629 28.4414 109.664 28.1367 109.734 27.7148C109.816 27.293 109.922 26.8066 110.051 26.2559C110.191 25.6934 110.344 25.0898 110.508 24.4453C110.684 23.7891 110.865 23.1387 111.053 22.4941C110.49 22.5293 110.027 22.6113 109.664 22.7402C109.301 22.8574 109.043 22.9277 108.891 22.9512L108.768 21.668C109.26 21.5508 109.705 21.457 110.104 21.3867C110.502 21.3047 110.941 21.2578 111.422 21.2461C111.633 20.5195 111.838 19.8809 112.037 19.3301C112.236 18.7676 112.4 18.3691 112.529 18.1348L114.129 18.1875C114 18.3867 113.824 18.7734 113.602 19.3477C113.379 19.9219 113.15 20.6016 112.916 21.3867C113.291 21.4688 113.678 21.5625 114.076 21.668C114.475 21.7734 114.85 21.8262 115.201 21.8262C115.412 21.8262 115.623 21.791 115.834 21.7207L116.027 22.9863C115.969 22.998 115.904 23.0039 115.834 23.0039C115.775 23.0039 115.711 23.0039 115.641 23.0039C115.301 23.0039 114.896 22.9688 114.428 22.8984C113.959 22.8164 113.461 22.7109 112.934 22.582C112.828 22.5703 112.705 22.5527 112.564 22.5293C112.412 23.0566 112.266 23.5957 112.125 24.1465C111.996 24.6855 111.879 25.207 111.773 25.7109C111.668 26.2031 111.58 26.666 111.51 27.0996C111.451 27.5332 111.422 27.9023 111.422 28.207C111.422 28.4414 111.439 28.6348 111.475 28.7871C111.521 28.9277 111.592 29.0098 111.686 29.0332ZM117.1 35.3438C117.24 35.1562 117.387 34.9043 117.539 34.5879C117.691 34.2832 117.844 33.9492 117.996 33.5859C118.16 33.2227 118.312 32.8477 118.453 32.4609C118.594 32.0742 118.729 31.7051 118.857 31.3535C118.752 31.4707 118.611 31.6934 118.436 32.0215C118.26 32.3496 118.078 32.7129 117.891 33.1113C117.715 33.5098 117.551 33.9082 117.398 34.3066C117.246 34.7168 117.146 35.0625 117.1 35.3438ZM117.205 21.7559C117.322 21.8262 117.527 21.8613 117.82 21.8613C118.055 21.8613 118.277 21.8496 118.488 21.8262C118.711 21.791 118.84 21.7676 118.875 21.7559C118.488 22.6582 118.143 23.5254 117.838 24.3574C117.709 24.709 117.58 25.0781 117.451 25.4648C117.322 25.8398 117.211 26.209 117.117 26.5723C117.023 26.9355 116.947 27.2871 116.889 27.627C116.83 27.9551 116.801 28.248 116.801 28.5059V28.5938C117 28.6523 117.193 28.6816 117.381 28.6816C117.58 28.6816 117.779 28.6406 117.979 28.5586C118.189 28.4648 118.395 28.3008 118.594 28.0664C118.699 27.9375 118.84 27.75 119.016 27.5039C119.191 27.2578 119.385 26.9766 119.596 26.6602C119.807 26.3438 120.023 26.0039 120.246 25.6406C120.48 25.2656 120.697 24.8965 120.896 24.5332C121.072 24.2402 121.23 23.9297 121.371 23.6016C121.5 23.332 121.623 23.0215 121.74 22.6699C121.857 22.3184 121.939 21.9668 121.986 21.6152L123.428 21.8262C123.217 22.4707 122.994 23.127 122.76 23.7949C122.537 24.4629 122.326 25.0781 122.127 25.6406C121.904 26.2852 121.682 26.918 121.459 27.5391C121.916 27.3164 122.367 27.0996 122.812 26.8887C123.188 26.7129 123.58 26.543 123.99 26.3789C124.4 26.2031 124.758 26.0684 125.062 25.9746L124.781 27.3281C124.523 27.4688 124.213 27.627 123.85 27.8027C123.498 27.9668 123.135 28.1484 122.76 28.3477C122.385 28.5352 122.021 28.7344 121.67 28.9453C121.33 29.1445 121.037 29.3379 120.791 29.5254C120.51 30.3457 120.234 31.1484 119.965 31.9336C119.707 32.7305 119.461 33.4512 119.227 34.0957C119.004 34.7402 118.805 35.291 118.629 35.748C118.465 36.2051 118.342 36.5098 118.26 36.6621C118.107 36.9668 117.891 37.1836 117.609 37.3125C117.34 37.4414 117.059 37.5059 116.766 37.5059C116.414 37.5059 116.104 37.4238 115.834 37.2598C115.564 37.0957 115.43 36.8672 115.43 36.5742C115.43 36.5391 115.436 36.5156 115.447 36.5039C115.471 36.2461 115.541 35.918 115.658 35.5195C115.787 35.1328 115.957 34.7051 116.168 34.2363C116.379 33.7676 116.619 33.2754 116.889 32.7598C117.17 32.2441 117.475 31.7402 117.803 31.248C118.131 30.7559 118.471 30.293 118.822 29.8594C119.186 29.4258 119.549 29.0449 119.912 28.7168C119.947 28.6816 119.982 28.6523 120.018 28.6289C120.053 28.5938 120.088 28.5586 120.123 28.5234L120.668 26.959C120.48 27.3105 120.281 27.6328 120.07 27.9258C119.871 28.207 119.672 28.4648 119.473 28.6992C119.285 28.9336 119.104 29.1445 118.928 29.332C118.764 29.5078 118.629 29.6543 118.523 29.7715C118.43 29.8535 118.277 29.918 118.066 29.9648C117.855 30 117.609 30.0176 117.328 30.0176C117.07 30.0176 116.807 30 116.537 29.9648C116.268 29.918 116.016 29.8535 115.781 29.7715C115.559 29.6777 115.377 29.5605 115.236 29.4199C115.096 29.2676 115.025 29.0918 115.025 28.8926C115.025 28.7051 115.072 28.4355 115.166 28.084C115.26 27.7207 115.377 27.3223 115.518 26.8887C115.658 26.4434 115.811 25.9746 115.975 25.4824C116.15 24.9902 116.314 24.5098 116.467 24.041C116.631 23.5723 116.777 23.1387 116.906 22.7402C117.035 22.3418 117.135 22.0137 117.205 21.7559ZM138.053 18.2051C137.701 18.7676 137.408 19.3711 137.174 20.0156C136.951 20.6484 136.734 21.3633 136.523 22.1602C136.793 22.1836 137.045 22.2422 137.279 22.3359C137.525 22.418 137.713 22.5293 137.842 22.6699L137.068 23.6543C136.881 23.4785 136.611 23.3906 136.26 23.3906H136.189C136.084 23.8477 135.961 24.334 135.82 24.8496C135.691 25.3535 135.551 25.8457 135.398 26.3262C135.258 26.7949 135.105 27.2344 134.941 27.6445C134.789 28.043 134.625 28.3652 134.449 28.6113C134.273 28.8457 134.098 29.0742 133.922 29.2969C133.758 29.4961 133.582 29.7012 133.395 29.9121C133.219 30.1113 133.031 30.2754 132.832 30.4043L131.865 29.3848C132.158 29.1621 132.434 28.9102 132.691 28.6289C132.949 28.3477 133.178 28.0547 133.377 27.75C133.588 27.4453 133.764 27.1406 133.904 26.8359C134.057 26.5195 134.168 26.2207 134.238 25.9395C134.273 25.7871 134.32 25.5234 134.379 25.1484C134.438 24.7617 134.514 24.3281 134.607 23.8477C134.549 23.8711 134.496 23.9004 134.449 23.9355C134.414 23.9707 134.373 24 134.326 24.0234C134.127 24.1406 133.881 24.1992 133.588 24.1992C133.283 24.1992 132.961 24.1465 132.621 24.041C132.293 23.9355 132.006 23.8184 131.76 23.6895L132.287 22.6523C132.416 22.7109 132.586 22.7695 132.797 22.8281C133.008 22.875 133.236 22.8984 133.482 22.8984C133.705 22.8984 133.939 22.8691 134.186 22.8105C134.432 22.7402 134.672 22.6406 134.906 22.5117C134.93 22.4297 134.947 22.3535 134.959 22.2832C134.982 22.2129 135.006 22.1367 135.029 22.0547C135.146 21.668 135.264 21.2812 135.381 20.8945C135.51 20.5078 135.639 20.1387 135.768 19.7871C135.908 19.4355 136.043 19.1074 136.172 18.8027C136.301 18.498 136.43 18.2402 136.559 18.0293C136.242 17.9238 135.861 17.8242 135.416 17.7305C134.982 17.625 134.578 17.5723 134.203 17.5723C133.969 17.5723 133.775 17.6074 133.623 17.6777C133.459 17.7363 133.242 17.8535 132.973 18.0293C132.738 18.1816 132.434 18.3984 132.059 18.6797C131.684 18.9492 131.227 19.3125 130.688 19.7695L129.844 18.2754C130.09 18.0879 130.406 17.877 130.793 17.6426C131.18 17.4082 131.59 17.1914 132.023 16.9922C132.469 16.7812 132.914 16.6055 133.359 16.4648C133.805 16.3242 134.209 16.2539 134.572 16.2539C134.619 16.2539 134.666 16.2539 134.713 16.2539C134.76 16.2539 134.807 16.2598 134.854 16.2715C135.018 16.2949 135.199 16.3418 135.398 16.4121C135.609 16.4824 135.832 16.5586 136.066 16.6406C136.301 16.7109 136.541 16.7812 136.787 16.8516C137.045 16.9219 137.303 16.9688 137.561 16.9922C137.643 17.0039 137.719 17.0098 137.789 17.0098C137.859 17.0098 137.941 17.0098 138.035 17.0098C138.539 17.0098 139.008 16.957 139.441 16.8516C139.887 16.7344 140.215 16.6348 140.426 16.5527L140.883 17.6602C140.742 17.6953 140.561 17.7422 140.338 17.8008C140.127 17.8477 139.893 17.9004 139.635 17.959C139.377 18.0059 139.107 18.0527 138.826 18.0996C138.557 18.1465 138.299 18.1816 138.053 18.2051ZM141.762 29.4551C141.809 29.4668 141.879 29.4727 141.973 29.4727C142.324 29.4727 142.641 29.3789 142.922 29.1914C143.203 29.0039 143.449 28.7695 143.66 28.4883C143.871 28.207 144.047 27.9082 144.188 27.5918C144.34 27.2637 144.451 26.9648 144.521 26.6953C144.58 26.543 144.645 26.3027 144.715 25.9746C144.785 25.6348 144.85 25.2715 144.908 24.8848C144.709 24.8145 144.504 24.6973 144.293 24.5332C144.094 24.3574 143.906 24.1582 143.73 23.9355C143.555 23.7129 143.408 23.4727 143.291 23.2148C143.186 22.957 143.133 22.7109 143.133 22.4766C143.133 22.3945 143.139 22.3301 143.15 22.2832C142.881 22.4473 142.623 22.6406 142.377 22.8633C142.143 23.0859 141.926 23.3262 141.727 23.584C141.527 23.8301 141.357 24.0938 141.217 24.375C141.076 24.6445 140.977 24.9082 140.918 25.166C140.848 25.4355 140.783 25.7637 140.725 26.1504C140.666 26.5254 140.637 26.9121 140.637 27.3105C140.637 27.5801 140.654 27.8379 140.689 28.084C140.725 28.3301 140.783 28.5527 140.865 28.752C140.959 28.9395 141.076 29.0977 141.217 29.2266C141.369 29.3555 141.551 29.4316 141.762 29.4551ZM144.732 22.3359C144.604 22.3359 144.51 22.377 144.451 22.459C144.393 22.541 144.363 22.6406 144.363 22.7578C144.363 22.957 144.428 23.1621 144.557 23.373C144.686 23.5723 144.855 23.7129 145.066 23.7949C145.078 23.6895 145.084 23.5898 145.084 23.4961C145.084 23.4023 145.084 23.3086 145.084 23.2148C145.084 22.9453 145.061 22.7344 145.014 22.582C144.967 22.418 144.879 22.3359 144.75 22.3359H144.732ZM150.375 24.1113C149.812 24.5684 149.268 24.9023 148.74 25.1133C148.213 25.3242 147.75 25.4297 147.352 25.4297C147.047 25.4297 146.701 25.3652 146.314 25.2363C146.186 25.7871 146.027 26.3438 145.84 26.9062C145.664 27.4688 145.465 27.9902 145.242 28.4707C145.031 28.9395 144.803 29.3379 144.557 29.666C144.322 29.9941 144.082 30.1992 143.836 30.2812C143.566 30.3867 143.273 30.4629 142.957 30.5098C142.641 30.5566 142.324 30.5801 142.008 30.5801C141.48 30.5801 140.982 30.5039 140.514 30.3516C140.057 30.1992 139.746 29.9531 139.582 29.6133C139.488 29.4141 139.412 29.127 139.354 28.752C139.295 28.377 139.266 27.9668 139.266 27.5215C139.266 27.1699 139.283 26.8066 139.318 26.4316C139.354 26.0449 139.4 25.6758 139.459 25.3242C139.529 24.9727 139.611 24.6504 139.705 24.3574C139.811 24.0527 139.928 23.8008 140.057 23.6016C140.256 23.2734 140.508 22.9453 140.812 22.6172C141.117 22.2773 141.445 21.9727 141.797 21.7031C142.16 21.4336 142.535 21.2109 142.922 21.0352C143.309 20.8594 143.689 20.7715 144.064 20.7715H144.117L144.17 21.2812C144.357 21.2109 144.557 21.1758 144.768 21.1758C145.201 21.1758 145.582 21.3164 145.91 21.5977C146.25 21.8672 146.484 22.2129 146.613 22.6348C146.637 22.7285 146.648 22.8867 146.648 23.1094C146.648 23.2734 146.643 23.4434 146.631 23.6191C146.631 23.7949 146.625 23.9297 146.613 24.0234C146.672 24.0469 146.736 24.0645 146.807 24.0762C146.924 24.1113 147.105 24.1289 147.352 24.1289C147.504 24.1289 147.691 24.1172 147.914 24.0938C148.148 24.0586 148.395 24.0059 148.652 23.9355C148.922 23.8535 149.197 23.748 149.479 23.6191C149.76 23.4785 150.029 23.2969 150.287 23.0742L150.375 24.1113ZM151.061 29.4551C151.107 29.4668 151.178 29.4727 151.271 29.4727C151.623 29.4727 151.939 29.3789 152.221 29.1914C152.502 29.0039 152.748 28.7695 152.959 28.4883C153.17 28.207 153.346 27.9082 153.486 27.5918C153.639 27.2637 153.75 26.9648 153.82 26.6953C153.879 26.543 153.943 26.3027 154.014 25.9746C154.084 25.6348 154.148 25.2715 154.207 24.8848C154.008 24.8145 153.803 24.6973 153.592 24.5332C153.393 24.3574 153.205 24.1582 153.029 23.9355C152.854 23.7129 152.707 23.4727 152.59 23.2148C152.484 22.957 152.432 22.7109 152.432 22.4766C152.432 22.3945 152.438 22.3301 152.449 22.2832C152.18 22.4473 151.922 22.6406 151.676 22.8633C151.441 23.0859 151.225 23.3262 151.025 23.584C150.826 23.8301 150.656 24.0938 150.516 24.375C150.375 24.6445 150.275 24.9082 150.217 25.166C150.146 25.4355 150.082 25.7637 150.023 26.1504C149.965 26.5254 149.936 26.9121 149.936 27.3105C149.936 27.5801 149.953 27.8379 149.988 28.084C150.023 28.3301 150.082 28.5527 150.164 28.752C150.258 28.9395 150.375 29.0977 150.516 29.2266C150.668 29.3555 150.85 29.4316 151.061 29.4551ZM154.031 22.3359C153.902 22.3359 153.809 22.377 153.75 22.459C153.691 22.541 153.662 22.6406 153.662 22.7578C153.662 22.957 153.727 23.1621 153.855 23.373C153.984 23.5723 154.154 23.7129 154.365 23.7949C154.377 23.6895 154.383 23.5898 154.383 23.4961C154.383 23.4023 154.383 23.3086 154.383 23.2148C154.383 22.9453 154.359 22.7344 154.312 22.582C154.266 22.418 154.178 22.3359 154.049 22.3359H154.031ZM159.674 24.1113C159.111 24.5684 158.566 24.9023 158.039 25.1133C157.512 25.3242 157.049 25.4297 156.65 25.4297C156.346 25.4297 156 25.3652 155.613 25.2363C155.484 25.7871 155.326 26.3438 155.139 26.9062C154.963 27.4688 154.764 27.9902 154.541 28.4707C154.33 28.9395 154.102 29.3379 153.855 29.666C153.621 29.9941 153.381 30.1992 153.135 30.2812C152.865 30.3867 152.572 30.4629 152.256 30.5098C151.939 30.5566 151.623 30.5801 151.307 30.5801C150.779 30.5801 150.281 30.5039 149.812 30.3516C149.355 30.1992 149.045 29.9531 148.881 29.6133C148.787 29.4141 148.711 29.127 148.652 28.752C148.594 28.377 148.564 27.9668 148.564 27.5215C148.564 27.1699 148.582 26.8066 148.617 26.4316C148.652 26.0449 148.699 25.6758 148.758 25.3242C148.828 24.9727 148.91 24.6504 149.004 24.3574C149.109 24.0527 149.227 23.8008 149.355 23.6016C149.555 23.2734 149.807 22.9453 150.111 22.6172C150.416 22.2773 150.744 21.9727 151.096 21.7031C151.459 21.4336 151.834 21.2109 152.221 21.0352C152.607 20.8594 152.988 20.7715 153.363 20.7715H153.416L153.469 21.2812C153.656 21.2109 153.855 21.1758 154.066 21.1758C154.5 21.1758 154.881 21.3164 155.209 21.5977C155.549 21.8672 155.783 22.2129 155.912 22.6348C155.936 22.7285 155.947 22.8867 155.947 23.1094C155.947 23.2734 155.941 23.4434 155.93 23.6191C155.93 23.7949 155.924 23.9297 155.912 24.0234C155.971 24.0469 156.035 24.0645 156.105 24.0762C156.223 24.1113 156.404 24.1289 156.65 24.1289C156.803 24.1289 156.99 24.1172 157.213 24.0938C157.447 24.0586 157.693 24.0059 157.951 23.9355C158.221 23.8535 158.496 23.748 158.777 23.6191C159.059 23.4785 159.328 23.2969 159.586 23.0742L159.674 24.1113ZM159.445 29.1035C159.586 29.1035 159.762 29.0332 159.973 28.8926C160.184 28.752 160.412 28.5703 160.658 28.3477C160.916 28.1133 161.18 27.8555 161.449 27.5742C161.719 27.2812 161.977 26.9883 162.223 26.6953C162.316 26.2969 162.428 25.8164 162.557 25.2539C162.686 24.6797 162.832 24.0645 162.996 23.4082C162.879 23.1504 162.727 22.9336 162.539 22.7578C162.352 22.582 162.188 22.4941 162.047 22.4941C161.988 22.4941 161.947 22.5059 161.924 22.5293C161.877 22.5645 161.771 22.6758 161.607 22.8633C161.443 23.0391 161.256 23.2617 161.045 23.5312C160.834 23.8008 160.605 24.0996 160.359 24.4277C160.125 24.7559 159.902 25.0781 159.691 25.3945C159.492 25.7109 159.316 26.0098 159.164 26.291C159.012 26.5605 158.924 26.7773 158.9 26.9414C158.877 27.1055 158.854 27.2754 158.83 27.4512C158.807 27.6152 158.795 27.7793 158.795 27.9434C158.795 28.248 158.836 28.5117 158.918 28.7344C159.012 28.957 159.176 29.0801 159.41 29.1035H159.445ZM166.512 17.6602C166.312 17.8828 166.102 18.2109 165.879 18.6445C165.656 19.0781 165.434 19.582 165.211 20.1562C165 20.7305 164.789 21.3574 164.578 22.0371C164.379 22.7051 164.197 23.3848 164.033 24.0762C164.303 23.5723 164.584 23.0215 164.877 22.4238C165.17 21.8262 165.434 21.2344 165.668 20.6484C165.902 20.0625 166.096 19.5059 166.248 18.9785C166.412 18.4512 166.5 18.0117 166.512 17.6602ZM163.523 26.9414C163.5 27.1523 163.482 27.3633 163.471 27.5742C163.459 27.7734 163.453 27.9727 163.453 28.1719C163.453 28.7109 163.506 29.1621 163.611 29.5254C163.799 29.4551 164.027 29.3555 164.297 29.2266C164.578 29.0977 164.871 28.9512 165.176 28.7871C165.48 28.623 165.791 28.4473 166.107 28.2598C166.424 28.0605 166.723 27.8672 167.004 27.6797C167.285 27.4922 167.531 27.3105 167.742 27.1348C167.965 26.9473 168.135 26.7832 168.252 26.6426L168.445 27.9082C168.316 28.084 168.082 28.3301 167.742 28.6465C167.402 28.9629 167.033 29.2793 166.635 29.5957C166.236 29.9004 165.838 30.1641 165.439 30.3867C165.053 30.6211 164.742 30.7383 164.508 30.7383H164.473C164.238 30.7383 163.986 30.709 163.717 30.6504C163.447 30.5918 163.195 30.5098 162.961 30.4043C162.727 30.3105 162.527 30.1934 162.363 30.0527C162.211 29.9121 162.135 29.7598 162.135 29.5957C162.123 29.4551 162.117 29.2793 162.117 29.0684C162.117 28.8574 162.111 28.6523 162.1 28.4531C161.83 28.7227 161.555 28.9805 161.273 29.2266C160.992 29.4609 160.717 29.666 160.447 29.8418C160.189 30.0176 159.938 30.1582 159.691 30.2637C159.457 30.3691 159.24 30.4219 159.041 30.4219C158.947 30.4219 158.883 30.416 158.848 30.4043C158.637 30.3574 158.443 30.252 158.268 30.0879C158.092 29.9355 157.939 29.7422 157.811 29.5078C157.693 29.2734 157.6 29.0156 157.529 28.7344C157.459 28.4414 157.424 28.1426 157.424 27.8379C157.424 27.416 157.494 27.0176 157.635 26.6426C157.729 26.3965 157.869 26.0977 158.057 25.7461C158.244 25.3945 158.455 25.0312 158.689 24.6562C158.936 24.2695 159.193 23.8828 159.463 23.4961C159.744 23.0977 160.025 22.7461 160.307 22.4414C160.588 22.125 160.857 21.8613 161.115 21.6504C161.385 21.4395 161.631 21.3164 161.854 21.2812C161.912 21.2695 161.965 21.2637 162.012 21.2637C162.059 21.2637 162.105 21.2637 162.152 21.2637C162.457 21.2637 162.709 21.3223 162.908 21.4395C163.119 21.5566 163.289 21.6855 163.418 21.8262C163.57 21.252 163.729 20.6895 163.893 20.1387C164.068 19.5762 164.232 19.0664 164.385 18.6094C164.549 18.1406 164.701 17.7422 164.842 17.4141C164.994 17.0742 165.135 16.834 165.264 16.6934C165.428 16.5293 165.598 16.418 165.773 16.3594C165.949 16.2891 166.131 16.2539 166.318 16.2539C166.518 16.2539 166.711 16.2949 166.898 16.377C167.086 16.4473 167.25 16.541 167.391 16.6582C167.543 16.7637 167.66 16.8867 167.742 17.0273C167.836 17.168 167.883 17.3027 167.883 17.4316V17.4844C167.871 17.6133 167.789 17.8945 167.637 18.3281C167.484 18.7617 167.285 19.2832 167.039 19.8926C166.805 20.4902 166.535 21.1406 166.23 21.8438C165.926 22.5469 165.609 23.2266 165.281 23.8828C164.965 24.5391 164.654 25.1426 164.35 25.6934C164.045 26.2324 163.77 26.6484 163.523 26.9414Z" fill="#195A00"/>
<path d="M15.8606 16.1441C15.7144 16.0017 15.59 15.8953 15.4815 15.7706C14.3824 14.5144 13.5952 13.0763 12.9283 11.5747C12.8507 11.3986 12.7946 11.2027 12.7894 11.0184C12.7864 10.919 12.8799 10.7794 12.9756 10.7247C13.0482 10.6841 13.2138 10.722 13.2839 10.7821C13.419 10.8948 13.5411 11.037 13.6332 11.1892C14.2425 12.1919 14.8462 13.1959 15.4423 14.2047C15.6642 14.5827 15.8764 14.9688 16.0906 15.3514C16.1639 15.4785 16.2296 15.6104 16.286 15.7415C16.3525 15.8878 16.3481 16.0478 16.2014 16.1233C16.1042 16.1726 16.0172 16.2371 15.8606 16.1441Z" fill="#333333"/>
<path d="M24.0744 14.439C23.9471 14.5865 23.8105 14.7657 23.6567 14.9253C23.0475 15.5534 22.4383 16.1816 21.824 16.8021C21.6902 16.9365 21.53 17.0505 21.3673 17.1444C21.1509 17.2716 20.9659 17.2501 20.8242 17.1242C20.6826 16.9984 20.657 16.8159 20.7831 16.598C20.868 16.4486 20.9663 16.2932 21.0862 16.1739C21.8819 15.3961 22.6846 14.6226 23.4888 13.8546C23.5791 13.7688 23.6927 13.6922 23.8112 13.6556C24.105 13.5605 24.342 13.7847 24.2573 14.0783C24.2225 14.1924 24.1439 14.2991 24.0744 14.439Z" fill="#333333"/>
<path d="M8.74923 18.4016C8.59019 18.2887 8.44349 18.1552 8.30446 18.0169C8.18117 17.8927 8.13558 17.7355 8.21396 17.5729C8.28148 17.4364 8.50111 17.3763 8.69141 17.4613C8.94634 17.5754 9.20277 17.695 9.43506 17.8468C10.1355 18.3042 10.8312 18.7774 11.5214 19.252C11.7495 19.4106 11.9695 19.5829 12.1853 19.7621C12.2589 19.8244 12.3279 19.9025 12.3652 19.985C12.4747 20.2126 12.3287 20.4233 12.0815 20.3928C11.9424 20.3753 11.7948 20.3156 11.6738 20.2438C11.2649 20.0244 9.3133 18.7967 8.74923 18.4016Z" fill="#333333"/>
<rect width="27" height="0.993632" rx="0.496816" transform="matrix(1 0 0 -1 197 29.8086)" fill="#195A00"/>
</svg>
